<svg width="152" height="152" viewBox="0 0 152 152" fill="none" xmlns="http://www.w3.org/2000/svg">
<path d="M120.333 31.6667V120.333H31.6667V31.6667H120.333ZM127.3 19H24.7C21.5333 19 19 21.5333 19 24.7V127.3C19 129.833 21.5333 133 24.7 133H127.3C129.833 133 133 129.833 133 127.3V24.7C133 21.5333 129.833 19 127.3 19V19ZM69.6667 44.3333H107.667V57H69.6667V44.3333ZM69.6667 69.6667H107.667V82.3333H69.6667V69.6667ZM69.6667 95H107.667V107.667H69.6667V95ZM44.3333 44.3333H57V57H44.3333V44.3333ZM44.3333 69.6667H57V82.3333H44.3333V69.6667ZM44.3333 95H57V107.667H44.3333V95Z" fill="currentcolor"/>
</svg>
