<svg width="152" height="152" viewBox="0 0 152 152" fill="none" xmlns="http://www.w3.org/2000/svg">
<path d="M16.0233 124.45L24.51 127.997V70.8067L9.12 107.92C6.52333 114.38 9.62666 121.79 16.0233 124.45V124.45ZM139.523 101.017L108.11 25.2067C106.147 20.4567 101.523 17.5434 96.6467 17.4167C95 17.4167 93.29 17.6701 91.6433 18.3667L44.9667 37.6834C40.2167 39.6467 37.3033 44.2067 37.1767 49.0834C37.1133 50.7934 37.43 52.5034 38.1267 54.1501L69.54 129.96C71.5033 134.773 76.19 137.687 81.13 137.75C82.7767 137.75 84.4233 137.433 86.0067 136.8L132.62 117.483C139.08 114.823 142.183 107.413 139.523 101.017V101.017ZM49.9067 55.4167C46.4233 55.4167 43.5733 52.5667 43.5733 49.0834C43.5733 45.6001 46.4233 42.7501 49.9067 42.7501C53.39 42.7501 56.24 45.6001 56.24 49.0834C56.24 52.5667 53.39 55.4167 49.9067 55.4167V55.4167ZM37.24 125.083C37.24 132.05 42.94 137.75 49.9067 137.75H59.09L37.24 84.9301V125.083Z" fill="currentcolor"/>
</svg>
