<svg width="120" height="120" viewBox="0 0 120 120" fill="none" xmlns="http://www.w3.org/2000/svg">
<path d="M109.7 24.4C108.8 21.75 106.25 20 103.4 20C103.25 20 103.1 20 102.95 20H98L96.45 15.15C95.75 12.15 93.05 10 90 10C86.95 10 84.25 12.15 83.55 15.2L82 20H77.1C76.95 20 76.8 20 76.65 20C73.8 20 71.25 21.75 70.35 24.4C69.4 27.2 70.55 30.25 73.15 31.8L77.5 34.4L75.5 40.6C74.35 43.5 75.3 46.85 77.75 48.7C78.9 49.55 80.3 50 81.65 50C83.2 50 84.7 49.45 85.95 48.4L90 44.9L94.05 48.4C95.3 49.45 96.8 50 98.35 50C99.7 50 101.1 49.55 102.25 48.7C104.75 46.85 105.65 43.5 104.5 40.6L102.55 34.4L106.9 31.8C109.45 30.25 110.6 27.2 109.7 24.4ZM90 35C87.25 35 85 32.75 85 30C85 27.25 87.25 25 90 25C92.75 25 95 27.25 95 30C95 32.75 92.75 35 90 35Z" fill="#2C2646"/>
<path d="M67.45 52.55C65.3 50.4 62.75 48.9 60 47.9V40H55V46.9C54.45 46.85 53.85 46.75 53.3 46.75C48.2 46.75 43.05 48.7 39.15 52.6C38.35 53.4 37.65 54.3 37 55.25L30 52.6C22.2 49.85 13.6 53.95 10.85 61.7C9.49999 65.45 9.69999 69.55 11.45 73.15C12.6 75.55 14.35 77.5 16.45 78.95C14.55 85.7 16.15 93.2 21.45 98.5C26.75 103.8 34.3 105.4 41 103.5C42.45 105.6 44.4 107.35 46.8 108.5C48.9 109.5 51.05 110 53.25 110C54.95 110 56.65 109.7 58.3 109.15C66.1 106.4 70.2 97.8 67.4 89.9L64.8 83.05C65.7 82.4 66.6 81.7 67.45 80.9C71.8 76.55 73.65 70.7 73.15 65.05H80V60.05H72.05C71.1 57.3 69.6 54.75 67.45 52.55ZM23.35 71.45C22.1 71 21.1 70.1 20.5 68.9C19.9 67.7 19.85 66.35 20.3 65.1C21.25 62.5 24.1 61.15 26.6 62.05L42.4 68C36.65 71 29.25 73.55 23.35 71.45ZM54.95 99.7C53.7 100.15 52.35 100.1 51.15 99.5C49.95 98.95 49.05 97.9 48.6 96.65C46.5 90.75 49.05 83.4 52.1 77.65L58 93.3C58.9 95.9 57.55 98.8 54.95 99.7ZM61 73L57.95 64.95C57.95 64.9 57.9 64.85 57.85 64.8C57.75 64.6 57.65 64.4 57.55 64.2C57.45 64 57.35 63.85 57.2 63.65C57.05 63.5 56.9 63.35 56.75 63.2C56.6 63.05 56.45 62.9 56.3 62.75C56.15 62.6 55.95 62.5 55.75 62.4C55.55 62.3 55.4 62.15 55.15 62.1C55.1 62.1 55.05 62.05 55 62L47 59C48.8 57.55 50.95 56.7 53.3 56.7C55.95 56.7 58.5 57.75 60.35 59.65C64 63.3 64.2 69.05 61 73Z" fill="#2C2646"/>
</svg>
