<svg width="128" height="128" viewBox="0 0 128 128" fill="none" xmlns="http://www.w3.org/2000/svg">
<path d="M82.6667 58.6666C87.085 58.6666 90.6667 55.0849 90.6667 50.6666C90.6667 46.2483 87.085 42.6666 82.6667 42.6666C78.2484 42.6666 74.6667 46.2483 74.6667 50.6666C74.6667 55.0849 78.2484 58.6666 82.6667 58.6666Z" fill="currentcolor"/>
<path d="M45.3333 58.6666C49.7516 58.6666 53.3333 55.0849 53.3333 50.6666C53.3333 46.2483 49.7516 42.6666 45.3333 42.6666C40.915 42.6666 37.3333 46.2483 37.3333 50.6666C37.3333 55.0849 40.915 58.6666 45.3333 58.6666Z" fill="currentcolor"/>
<path d="M63.9467 10.6666C34.5067 10.6666 10.6667 34.56 10.6667 64C10.6667 93.44 34.5067 117.333 63.9467 117.333C93.44 117.333 117.333 93.44 117.333 64C117.333 34.56 93.44 10.6666 63.9467 10.6666ZM64 106.667C40.4267 106.667 21.3334 87.5733 21.3334 64C21.3334 40.4266 40.4267 21.3333 64 21.3333C87.5734 21.3333 106.667 40.4266 106.667 64C106.667 87.5733 87.5734 106.667 64 106.667ZM64 74.6666C51.5734 74.6666 40.96 82.4 36.6934 93.3333H45.6C49.28 86.9866 56.1067 82.6666 64 82.6666C71.8934 82.6666 78.6667 86.9866 82.4 93.3333H91.3067C87.04 82.4 76.4267 74.6666 64 74.6666V74.6666Z" fill="currentcolor"/>
</svg>
