<svg width="120" height="120" viewBox="0 0 120 120" fill="none" xmlns="http://www.w3.org/2000/svg">
<path d="M60 80C79.35 80 95 64.35 95 45C95 25.65 79.35 10 60 10C40.65 10 25 25.65 25 45C25 64.35 40.65 80 60 80ZM60 20C73.8 20 85 31.2 85 45C85 58.8 73.8 70 60 70C46.2 70 35 58.8 35 45C35 31.2 46.2 20 60 20Z" fill="#2C2646"/>
<path d="M50 45C52.7614 45 55 42.7614 55 40C55 37.2386 52.7614 35 50 35C47.2386 35 45 37.2386 45 40C45 42.7614 47.2386 45 50 45Z" fill="#2C2646"/>
<path d="M70 45C72.7614 45 75 42.7614 75 40C75 37.2386 72.7614 35 70 35C67.2386 35 65 37.2386 65 40C65 42.7614 67.2386 45 70 45Z" fill="#2C2646"/>
<path d="M60 35C62.7614 35 65 32.7614 65 30C65 27.2386 62.7614 25 60 25C57.2386 25 55 27.2386 55 30C55 32.7614 57.2386 35 60 35Z" fill="#2C2646"/>
<path d="M35 95H45C50.5 95 55 99.5 55 105V110H65V105C65 99.5 69.5 95 75 95H85V85H35V95Z" fill="#2C2646"/>
</svg>
