<svg width="116" height="116" viewBox="0 0 116 116" fill="none" xmlns="http://www.w3.org/2000/svg">
<path d="M67.6667 19.3333H48.3333V38.6666H67.6667V19.3333Z" fill="currentcolor"/>
<path d="M38.6667 77.3333H19.3333V96.6666H38.6667V77.3333Z" fill="currentcolor"/>
<path d="M38.6667 48.3333H19.3333V67.6666H38.6667V48.3333Z" fill="currentcolor"/>
<path d="M38.6667 19.3333H19.3333V38.6666H38.6667V19.3333Z" fill="currentcolor"/>
<path d="M67.6667 60.0299V48.3333H48.3333V67.6666H60.03L67.6667 60.0299Z" fill="currentcolor"/>
<path d="M100.92 54.5683L95.265 48.9133C94.4917 48.1399 93.235 48.1399 92.4617 48.9133L88.2083 53.1666L96.6667 61.6249L100.92 57.3716C101.693 56.5983 101.693 55.3416 100.92 54.5683Z" fill="currentcolor"/>
<path d="M53.1667 88.2083V96.6666H61.625L93.8634 64.4283L85.405 55.97L53.1667 88.2083Z" fill="currentcolor"/>
<path d="M96.6667 19.3333H77.3333V38.6666H96.6667V19.3333Z" fill="currentcolor"/>
</svg>
