<svg width="116" height="116" viewBox="0 0 116 116" fill="none" xmlns="http://www.w3.org/2000/svg">
<path d="M57.9517 9.66663C31.2717 9.66663 9.66666 31.32 9.66666 58C9.66666 84.68 31.2717 106.333 57.9517 106.333C84.68 106.333 106.333 84.68 106.333 58C106.333 31.32 84.68 9.66663 57.9517 9.66663ZM91.4467 38.6666H77.1883C75.6417 32.625 73.4183 26.825 70.5183 21.46C79.4117 24.505 86.8067 30.6916 91.4467 38.6666ZM58 19.5266C62.0117 25.3266 65.1533 31.755 67.2317 38.6666H48.7683C50.8467 31.755 53.9883 25.3266 58 19.5266ZM20.59 67.6666C19.8167 64.5733 19.3333 61.335 19.3333 58C19.3333 54.665 19.8167 51.4266 20.59 48.3333H36.9267C36.54 51.5233 36.25 54.7133 36.25 58C36.25 61.2866 36.54 64.4766 36.9267 67.6666H20.59ZM24.5533 77.3333H38.8117C40.3583 83.375 42.5817 89.175 45.4817 94.54C36.5883 91.495 29.1933 85.3566 24.5533 77.3333V77.3333ZM38.8117 38.6666H24.5533C29.1933 30.6433 36.5883 24.505 45.4817 21.46C42.5817 26.825 40.3583 32.625 38.8117 38.6666V38.6666ZM58 96.4733C53.9883 90.6733 50.8467 84.245 48.7683 77.3333H67.2317C65.1533 84.245 62.0117 90.6733 58 96.4733ZM69.31 67.6666H46.69C46.255 64.4766 45.9167 61.2866 45.9167 58C45.9167 54.7133 46.255 51.475 46.69 48.3333H69.31C69.745 51.475 70.0833 54.7133 70.0833 58C70.0833 61.2866 69.745 64.4766 69.31 67.6666ZM70.5183 94.54C73.4183 89.175 75.6417 83.375 77.1883 77.3333H91.4467C86.8067 85.3083 79.4117 91.495 70.5183 94.54V94.54ZM79.0733 67.6666C79.46 64.4766 79.75 61.2866 79.75 58C79.75 54.7133 79.46 51.5233 79.0733 48.3333H95.41C96.1833 51.4266 96.6667 54.665 96.6667 58C96.6667 61.335 96.1833 64.5733 95.41 67.6666H79.0733Z" fill="currentcolor"/>
</svg>
