<svg width="116" height="116" viewBox="0 0 116 116" fill="none" xmlns="http://www.w3.org/2000/svg">
<path d="M91.8333 24.1667V91.8333H24.1667V24.1667H91.8333ZM97.15 14.5H18.85C16.4333 14.5 14.5 16.4333 14.5 18.85V97.15C14.5 99.0833 16.4333 101.5 18.85 101.5H97.15C99.0833 101.5 101.5 99.0833 101.5 97.15V18.85C101.5 16.4333 99.0833 14.5 97.15 14.5V14.5ZM53.1667 33.8333H82.1667V43.5H53.1667V33.8333ZM53.1667 53.1667H82.1667V62.8333H53.1667V53.1667ZM53.1667 72.5H82.1667V82.1667H53.1667V72.5ZM33.8333 33.8333H43.5V43.5H33.8333V33.8333ZM33.8333 53.1667H43.5V62.8333H33.8333V53.1667ZM33.8333 72.5H43.5V82.1667H33.8333V72.5Z" fill="currentcolor"/>
</svg>
