<svg width="116" height="116" viewBox="0 0 116 116" fill="none" xmlns="http://www.w3.org/2000/svg">
<path d="M88.2084 36.7333L61.625 21.3633C59.4017 20.0583 56.5984 20.0583 54.375 21.3633L27.7917 36.7333C25.5684 38.0383 24.1667 40.4066 24.1667 43.0166V73.7083C24.1667 76.3183 25.5684 78.6866 27.7917 79.9916L54.375 95.3616C56.5984 96.6666 59.4017 96.6666 61.625 95.3616L88.2084 79.9916C90.4317 78.6866 91.8334 76.3183 91.8334 73.7083V43.0166C91.8334 40.4066 90.4317 38.0383 88.2084 36.7333V36.7333ZM33.8334 72.3066V49.9766L53.1667 61.19V83.4716L33.8334 72.3066V72.3066ZM58 52.8283L38.6667 41.615L58 30.45L77.3334 41.615L58 52.8283ZM62.8334 83.4716V61.19L82.1667 49.9766V72.3066L62.8334 83.4716ZM33.8334 9.66663H16.9167C12.905 9.66663 9.66669 12.905 9.66669 16.9166V33.8333H19.3334V19.3333H33.8334V9.66663ZM82.1667 9.66663H99.0834C103.095 9.66663 106.333 12.905 106.333 16.9166V33.8333H96.6667V19.3333H82.1667V9.66663ZM33.8334 106.333H16.9167C12.905 106.333 9.66669 103.095 9.66669 99.0833V82.1666H19.3334V96.6666H33.8334V106.333ZM82.1667 106.333H99.0834C103.095 106.333 106.333 103.095 106.333 99.0833V82.1666H96.6667V96.6666H82.1667V106.333Z" fill="currentcolor"/>
</svg>
