<svg width="101" height="100" viewBox="0 0 101 100" fill="none" xmlns="http://www.w3.org/2000/svg">
<path d="M71.5417 45.8333V12.5H29.4583V29.1667H12.625V87.5H46.2917V70.8333H54.7083V87.5H88.375V45.8333H71.5417ZM29.4583 79.1667H21.0417V70.8333H29.4583V79.1667ZM29.4583 62.5H21.0417V54.1667H29.4583V62.5ZM29.4583 45.8333H21.0417V37.5H29.4583V45.8333ZM46.2917 62.5H37.875V54.1667H46.2917V62.5ZM46.2917 45.8333H37.875V37.5H46.2917V45.8333ZM46.2917 29.1667H37.875V20.8333H46.2917V29.1667ZM63.125 62.5H54.7083V54.1667H63.125V62.5ZM63.125 45.8333H54.7083V37.5H63.125V45.8333ZM63.125 29.1667H54.7083V20.8333H63.125V29.1667ZM79.9583 79.1667H71.5417V70.8333H79.9583V79.1667ZM79.9583 62.5H71.5417V54.1667H79.9583V62.5Z" fill="currentcolor"/>
</svg>
