<svg width="101" height="101" viewBox="0 0 101 101" fill="none" xmlns="http://www.w3.org/2000/svg">
<path d="M93.2987 38.5904C93.2987 22.3042 80.1267 9.13208 63.8404 9.13208C47.5542 9.13208 34.3821 22.3042 34.3821 38.5904C34.3821 53.1933 44.9871 65.2712 58.9167 67.5858V84.1667H25.25V71.5417H29.4583V54.7083C29.4583 52.3937 27.5646 50.5 25.25 50.5H12.625C10.3104 50.5 8.41666 52.3937 8.41666 54.7083V71.5417H12.625V92.5833H79.9583V84.1667H67.3333V67.8383C81.9362 66.1129 93.2987 53.6983 93.2987 38.5904V38.5904ZM18.9375 46.2917C22.4304 46.2917 25.25 43.4721 25.25 39.9792C25.25 36.4862 22.4304 33.6667 18.9375 33.6667C15.4446 33.6667 12.625 36.4862 12.625 39.9792C12.625 43.4721 15.4446 46.2917 18.9375 46.2917Z" fill="currentcolor"/>
</svg>
