<svg width="101" height="100" viewBox="0 0 101 100" fill="none" xmlns="http://www.w3.org/2000/svg">
<path d="M50.5 8.33334C27.27 8.33334 8.41666 27 8.41666 50C8.41666 73 27.27 91.6667 50.5 91.6667C73.73 91.6667 92.5833 73 92.5833 50C92.5833 27 73.73 8.33334 50.5 8.33334ZM46.2917 83.0417C29.6687 81 16.8333 67 16.8333 50C16.8333 47.4167 17.17 44.9583 17.7171 42.5417L37.875 62.5V66.6667C37.875 71.25 41.6625 75 46.2917 75V83.0417ZM75.3292 72.4583C74.235 69.0833 71.1208 66.6667 67.3333 66.6667H63.125V54.1667C63.125 51.875 61.2312 50 58.9167 50H33.6667V41.6667H42.0833C44.3979 41.6667 46.2917 39.7917 46.2917 37.5V29.1667H54.7083C59.3375 29.1667 63.125 25.4167 63.125 20.8333V19.125C75.4554 24.0833 84.1667 36.0417 84.1667 50C84.1667 58.6667 80.8 66.5417 75.3292 72.4583Z" fill="currentcolor"/>
</svg>
